<?xml version="1.0" encoding="UTF-8"?>
<svg xmlns="http://www.w3.org/2000/svg" viewBox="0 0 465.22 436.12">
  <defs>
    <style>
      .cls-1, .cls-2 {
        opacity: .7;
      }

      .cls-3, .cls-4, .cls-5, .cls-6 {
        fill: #fff;
      }

      .cls-7 {
        fill: #fafafa;
      }

      .cls-8 {
        fill: #37474f;
      }

      .cls-9 {
        fill: #f5f5f5;
      }

      .cls-10 {
        fill: #455a64;
      }

      .cls-11 {
        fill: #f28f8f;
      }

      .cls-12, .cls-4 {
        opacity: .5;
      }

      .cls-12, .cls-2, .cls-13 {
        fill: #27debf;
      }

      .cls-14 {
        fill: #e0e0e0;
      }

      .cls-15 {
        opacity: .35;
      }

      .cls-5 {
        opacity: .8;
      }

      .cls-16 {
        fill: #e6e6e6;
      }

      .cls-17 {
        opacity: .15;
      }

      .cls-18 {
        opacity: .4;
      }

      .cls-19 {
        opacity: .55;
      }

      .cls-20 {
        opacity: .1;
      }

      .cls-21 {
        fill: #ebebeb;
      }

      .cls-6 {
        opacity: .6;
      }

      .cls-22 {
        opacity: .25;
      }

      .cls-23 {
        fill: #263238;
      }

      .cls-24 {
        fill: #ffa8a7;
      }
    </style>
  </defs>
  <g id="Shadows">
    <ellipse id="Shadow" class="cls-14" cx="191.54" cy="371.46" rx="78.28" ry="41.9"/>
    <path id="Shadow-2" data-name="Shadow" class="cls-14" d="m254.8,320.68l-141.2-75.58c-1.67-.89-1.67-2.34,0-3.23l61.92-33.14c1.67-.89,4.37-.89,6.04,0l141.2,75.58c1.67.89,1.67,2.34,0,3.23l-61.92,33.14c-1.67.89-4.37.89-6.04,0Z"/>
    <path id="Shadow-3" data-name="Shadow" class="cls-14" d="m373.74,335.84l90.23-48.3c1.67-.89,1.67-2.34,0-3.23l-146.86-78.61c-1.67-.89-4.37-.89-6.04,0l-90.23,48.3c-1.67.89-1.67,2.34,0,3.23l146.86,78.61c1.67.89,4.37.89,6.04,0Z"/>
  </g>
  <g id="Photos">
    <g id="Photos-2" data-name="Photos">
      <g>
        <path class="cls-8" d="m326.21,198.29l135.57,72.58c.97.52,1.76,1.79,1.76,2.83v3.31c0,1.04-.79,2.31-1.76,2.83l-89.14,47.72c-.97.52-2.55.52-3.53,0l-135.59-72.59c-.97-.52-1.76-1.79-1.76-2.83v-3.31c0-1.04.79-2.31,1.76-2.83l89.16-47.71c.97-.52,2.55-.52,3.53,0Z"/>
        <path class="cls-10" d="m372.64,320.47l89.14-47.72c.97-.52.97-1.37,0-1.89l-135.57-72.58c-.97-.52-2.55-.52-3.53,0l-89.16,47.71c-.97.52-.97,1.37,0,1.89l135.59,72.59c.97.52,2.55.52,3.53,0Z"/>
        <path class="cls-23" d="m370.76,320.86v7.09c.67.02,1.35-.11,1.87-.38l89.15-47.73c.96-.51,1.76-1.78,1.76-2.83v-3.31c0-.92-.62-2.02-1.43-2.63.62.53.52,1.22-.33,1.68l-89.15,47.71c-.52.29-1.21.41-1.87.39Z"/>
      </g>
      <g>
        <polygon class="cls-14" points="254.82 252.87 258.53 254.86 245.36 162.75 241.64 160.75 254.82 252.87"/>
        <polygon class="cls-7" points="258.53 254.86 337.99 212.34 324.82 120.23 245.36 162.75 258.53 254.86"/>
        <polygon class="cls-21" points="241.64 160.75 245.36 162.75 324.82 120.23 321.05 118.21 241.64 160.75"/>
        <polygon class="cls-13" points="249.51 164.13 322.33 125.16 334.28 209.33 261.46 248.24 249.51 164.13"/>
        <polygon class="cls-5" points="249.51 164.13 322.33 125.16 334.28 209.33 261.46 248.24 249.51 164.13"/>
        <path class="cls-13" d="m326.48,176.91l-18.68-16.41c-1.95-1.71-4.26-1.19-5.12,1.17l-13.39,36.58c-.33.91-1.8.64-1.72-.32l.58-7.71-11.92-7.77c-2.2-1.43-4.98-.78-6.19,1.45l-14.02,26,4.98,35.03,69.99-37.43-4.5-30.59Z"/>
        <path class="cls-13" d="m263.12,164.34c3.29-1.76,6.36-.57,6.86,2.67.5,3.23-1.78,7.29-5.11,9.07-3.33,1.78-6.4.59-6.86-2.67-.47-3.25,1.82-7.31,5.11-9.07Z"/>
        <polygon class="cls-14" points="319.03 126.94 330.98 207.5 334.28 209.27 322.33 125.16 319.03 126.94"/>
        <polygon class="cls-21" points="330.98 207.5 260.99 244.93 261.46 248.24 334.28 209.27 330.98 207.5"/>
      </g>
      <g>
        <polygon class="cls-14" points="274.58 263.48 278.3 265.47 265.12 173.36 261.4 171.37 274.58 263.48"/>
        <polygon class="cls-7" points="278.3 265.47 357.76 222.95 344.59 130.84 265.12 173.36 278.3 265.47"/>
        <polygon class="cls-21" points="261.4 171.37 265.12 173.36 344.59 130.84 340.81 128.82 261.4 171.37"/>
        <polygon class="cls-13" points="269.28 174.74 342.1 135.78 354.05 219.94 281.23 258.86 269.28 174.74"/>
        <polygon class="cls-5" points="269.28 174.74 342.1 135.78 354.05 219.94 281.23 258.86 269.28 174.74"/>
        <path class="cls-13" d="m346.25,187.52l-18.68-16.41c-1.95-1.71-4.26-1.19-5.12,1.17l-13.39,36.58c-.33.91-1.8.64-1.72-.32l.58-7.71-11.92-7.77c-2.2-1.43-4.98-.78-6.19,1.45l-14.02,26,4.98,35.03,69.99-37.43-4.5-30.59Z"/>
        <path class="cls-13" d="m282.88,174.96c3.29-1.76,6.36-.57,6.86,2.67.5,3.23-1.78,7.29-5.11,9.07-3.33,1.78-6.4.59-6.86-2.67-.47-3.25,1.82-7.31,5.11-9.07Z"/>
        <polygon class="cls-14" points="338.8 137.56 350.74 218.11 354.04 219.88 342.1 135.78 338.8 137.56"/>
        <polygon class="cls-21" points="350.74 218.11 280.75 255.54 281.23 258.86 354.04 219.88 350.74 218.11"/>
      </g>
      <g>
        <polygon class="cls-14" points="294.35 274.1 298.06 276.09 284.89 183.98 281.17 181.98 294.35 274.1"/>
        <polygon class="cls-7" points="298.06 276.09 377.52 233.57 364.35 141.46 284.89 183.98 298.06 276.09"/>
        <polygon class="cls-21" points="281.17 181.98 284.89 183.98 364.35 141.46 360.58 139.44 281.17 181.98"/>
        <polygon class="cls-13" points="289.04 185.36 361.87 146.39 373.82 230.56 300.99 269.47 289.04 185.36"/>
        <polygon class="cls-5" points="289.04 185.36 361.87 146.39 373.82 230.56 300.99 269.47 289.04 185.36"/>
        <path class="cls-13" d="m366.01,198.14l-18.68-16.41c-1.95-1.71-4.26-1.19-5.12,1.17l-13.39,36.58c-.33.91-1.8.64-1.72-.32l.58-7.71-11.92-7.77c-2.2-1.43-4.98-.78-6.19,1.45l-14.02,26,4.98,35.03,69.99-37.43-4.5-30.59Z"/>
        <path class="cls-13" d="m302.65,185.57c3.29-1.76,6.36-.57,6.86,2.67.5,3.23-1.78,7.29-5.11,9.07-3.33,1.78-6.4.59-6.86-2.67-.47-3.25,1.82-7.31,5.11-9.07Z"/>
        <polygon class="cls-14" points="358.57 148.17 370.51 228.73 373.81 230.5 361.87 146.39 358.57 148.17"/>
        <polygon class="cls-21" points="370.51 228.73 300.52 266.16 300.99 269.47 373.81 230.5 370.51 228.73"/>
      </g>
      <g>
        <polygon class="cls-14" points="314.12 284.71 317.83 286.7 304.65 194.59 300.93 192.6 314.12 284.71"/>
        <polygon class="cls-7" points="317.83 286.7 397.29 244.18 384.12 152.07 304.65 194.59 317.83 286.7"/>
        <polygon class="cls-21" points="300.93 192.6 304.65 194.59 384.12 152.07 380.35 150.05 300.93 192.6"/>
        <polygon class="cls-13" points="308.81 195.97 381.63 157.01 393.58 241.17 320.76 280.09 308.81 195.97"/>
        <polygon class="cls-5" points="308.81 195.97 381.63 157.01 393.58 241.17 320.76 280.09 308.81 195.97"/>
        <path class="cls-13" d="m385.78,208.75l-18.68-16.41c-1.95-1.71-4.26-1.19-5.12,1.17l-13.39,36.58c-.33.91-1.8.64-1.72-.32l.58-7.71-11.92-7.77c-2.2-1.43-4.98-.78-6.19,1.45l-14.02,26,4.98,35.03,69.99-37.43-4.5-30.59Z"/>
        <path class="cls-13" d="m322.41,196.19c3.29-1.76,6.36-.57,6.86,2.67.5,3.23-1.78,7.29-5.11,9.07-3.33,1.78-6.4.59-6.86-2.67-.47-3.25,1.82-7.31,5.11-9.07Z"/>
        <polygon class="cls-14" points="378.33 158.79 390.28 239.34 393.57 241.12 381.63 157.01 378.33 158.79"/>
        <polygon class="cls-21" points="390.28 239.34 320.29 276.77 320.76 280.09 393.57 241.12 390.28 239.34"/>
      </g>
      <g>
        <polygon class="cls-14" points="333.88 295.33 337.59 297.32 324.42 205.21 320.7 203.21 333.88 295.33"/>
        <polygon class="cls-7" points="337.59 297.32 417.06 254.8 403.88 162.69 324.42 205.21 337.59 297.32"/>
        <polygon class="cls-21" points="320.7 203.21 324.42 205.21 403.88 162.69 400.11 160.67 320.7 203.21"/>
        <polygon class="cls-13" points="328.57 206.59 401.4 167.62 413.35 251.79 340.52 290.7 328.57 206.59"/>
        <polygon class="cls-5" points="328.57 206.59 401.4 167.62 413.35 251.79 340.52 290.7 328.57 206.59"/>
        <path class="cls-13" d="m405.54,219.37l-18.68-16.41c-1.95-1.71-4.26-1.19-5.12,1.17l-13.39,36.58c-.33.91-1.8.64-1.72-.32l.58-7.71-11.92-7.77c-2.2-1.43-4.98-.78-6.19,1.45l-14.02,26,4.98,35.03,69.99-37.43-4.5-30.59Z"/>
        <path class="cls-13" d="m342.18,206.8c3.29-1.76,6.36-.57,6.86,2.67.5,3.23-1.78,7.29-5.11,9.07-3.33,1.78-6.4.59-6.86-2.67-.47-3.25,1.82-7.31,5.11-9.07Z"/>
        <polygon class="cls-14" points="398.1 169.4 410.04 249.96 413.34 251.73 401.4 167.62 398.1 169.4"/>
        <polygon class="cls-21" points="410.04 249.96 340.05 287.39 340.52 290.7 413.34 251.73 410.04 249.96"/>
      </g>
      <g>
        <polygon class="cls-14" points="353.65 305.94 357.36 307.93 344.19 215.82 340.47 213.83 353.65 305.94"/>
        <polygon class="cls-7" points="357.36 307.93 436.82 265.41 423.65 173.3 344.19 215.82 357.36 307.93"/>
        <polygon class="cls-21" points="340.47 213.83 344.19 215.82 423.65 173.3 419.88 171.28 340.47 213.83"/>
        <polygon class="cls-13" points="348.34 217.2 421.16 178.24 433.11 262.4 360.29 301.32 348.34 217.2"/>
        <polygon class="cls-5" points="348.34 217.2 421.16 178.24 433.11 262.4 360.29 301.32 348.34 217.2"/>
        <path class="cls-13" d="m425.31,229.98l-18.68-16.41c-1.95-1.71-4.26-1.19-5.12,1.17l-13.39,36.58c-.33.91-1.8.64-1.72-.32l.58-7.71-11.92-7.77c-2.2-1.43-4.98-.78-6.19,1.45l-14.02,26,4.98,35.03,69.99-37.43-4.5-30.59Z"/>
        <path class="cls-13" d="m361.95,217.42c3.29-1.76,6.36-.57,6.86,2.67.5,3.23-1.78,7.29-5.11,9.07-3.33,1.78-6.4.59-6.86-2.67-.47-3.25,1.82-7.31,5.11-9.07Z"/>
        <polygon class="cls-14" points="417.86 180.02 429.81 260.57 433.11 262.35 421.16 178.24 417.86 180.02"/>
        <polygon class="cls-21" points="429.81 260.57 359.82 298 360.29 301.32 433.11 262.35 429.81 260.57"/>
      </g>
    </g>
    <g id="Photos-3" data-name="Photos">
      <g>
        <path class="cls-8" d="m326.21,81.94l135.57,72.58c.97.52,1.76,1.79,1.76,2.83v3.31c0,1.04-.79,2.31-1.76,2.83l-89.14,47.72c-.97.52-2.55.52-3.53,0l-135.59-72.59c-.97-.52-1.76-1.79-1.76-2.83v-3.31c0-1.04.79-2.31,1.76-2.83l89.16-47.71c.97-.52,2.55-.52,3.53,0Z"/>
        <path class="cls-10" d="m372.64,204.13l89.14-47.72c.97-.52.97-1.37,0-1.89l-135.57-72.58c-.97-.52-2.55-.52-3.53,0l-89.16,47.71c-.97.52-.97,1.37,0,1.89l135.59,72.59c.97.52,2.55.52,3.53,0Z"/>
        <path class="cls-23" d="m370.76,204.51v7.09c.67.02,1.35-.11,1.87-.38l89.15-47.73c.96-.51,1.76-1.78,1.76-2.83v-3.31c0-.92-.62-2.02-1.43-2.63.62.53.52,1.22-.33,1.68l-89.15,47.71c-.52.29-1.21.41-1.87.39Z"/>
      </g>
      <g>
        <polygon class="cls-14" points="254.82 135.76 258.53 137.75 245.36 45.64 241.64 43.65 254.82 135.76"/>
        <polygon class="cls-7" points="258.53 137.75 337.99 95.23 324.82 3.12 245.36 45.64 258.53 137.75"/>
        <polygon class="cls-21" points="241.64 43.65 245.36 45.64 324.82 3.12 321.05 1.1 241.64 43.65"/>
        <polygon class="cls-13" points="249.51 47.02 322.33 8.06 334.28 92.22 261.46 131.14 249.51 47.02"/>
        <polygon class="cls-5" points="249.51 47.02 322.33 8.06 334.28 92.22 261.46 131.14 249.51 47.02"/>
        <path class="cls-13" d="m326.48,59.8l-18.68-16.41c-1.95-1.71-4.26-1.19-5.12,1.17l-13.39,36.58c-.33.91-1.8.64-1.72-.32l.58-7.71-11.92-7.77c-2.2-1.43-4.98-.78-6.19,1.45l-14.02,26,4.98,35.03,69.99-37.43-4.5-30.59Z"/>
        <path class="cls-13" d="m263.12,47.24c3.29-1.76,6.36-.57,6.86,2.67.5,3.23-1.78,7.29-5.11,9.07-3.33,1.78-6.4.59-6.86-2.67-.47-3.25,1.82-7.31,5.11-9.07Z"/>
        <polygon class="cls-14" points="319.03 9.83 330.98 90.39 334.28 92.16 322.33 8.06 319.03 9.83"/>
        <polygon class="cls-21" points="330.98 90.39 260.99 127.82 261.46 131.14 334.28 92.16 330.98 90.39"/>
      </g>
      <g>
        <polygon class="cls-14" points="274.58 146.37 278.3 148.36 265.12 56.25 261.4 54.26 274.58 146.37"/>
        <polygon class="cls-7" points="278.3 148.36 357.76 105.85 344.59 13.74 265.12 56.25 278.3 148.36"/>
        <polygon class="cls-21" points="261.4 54.26 265.12 56.25 344.59 13.74 340.81 11.72 261.4 54.26"/>
        <polygon class="cls-13" points="269.28 57.64 342.1 18.67 354.05 102.83 281.23 141.75 269.28 57.64"/>
        <polygon class="cls-5" points="269.28 57.64 342.1 18.67 354.05 102.83 281.23 141.75 269.28 57.64"/>
        <path class="cls-13" d="m346.25,70.42l-18.68-16.41c-1.95-1.71-4.26-1.19-5.12,1.17l-13.39,36.58c-.33.91-1.8.64-1.72-.32l.58-7.71-11.92-7.77c-2.2-1.43-4.98-.78-6.19,1.45l-14.02,26,4.98,35.03,69.99-37.43-4.5-30.59Z"/>
        <path class="cls-13" d="m282.88,57.85c3.29-1.76,6.36-.57,6.86,2.67.5,3.23-1.78,7.29-5.11,9.07-3.33,1.78-6.4.59-6.86-2.67-.47-3.25,1.82-7.31,5.11-9.07Z"/>
        <polygon class="cls-14" points="338.8 20.45 350.74 101 354.04 102.78 342.1 18.67 338.8 20.45"/>
        <polygon class="cls-21" points="350.74 101 280.75 138.44 281.23 141.75 354.04 102.78 350.74 101"/>
      </g>
      <g>
        <polygon class="cls-14" points="294.35 156.99 298.06 158.98 284.89 66.87 281.17 64.88 294.35 156.99"/>
        <polygon class="cls-7" points="298.06 158.98 377.52 116.46 364.35 24.35 284.89 66.87 298.06 158.98"/>
        <polygon class="cls-21" points="281.17 64.88 284.89 66.87 364.35 24.35 360.58 22.33 281.17 64.88"/>
        <polygon class="cls-13" points="289.04 68.25 361.87 29.29 373.82 113.45 300.99 152.37 289.04 68.25"/>
        <polygon class="cls-5" points="289.04 68.25 361.87 29.29 373.82 113.45 300.99 152.37 289.04 68.25"/>
        <path class="cls-13" d="m366.01,81.03l-18.68-16.41c-1.95-1.71-4.26-1.19-5.12,1.17l-13.39,36.58c-.33.91-1.8.64-1.72-.32l.58-7.71-11.92-7.77c-2.2-1.43-4.98-.78-6.19,1.45l-14.02,26,4.98,35.03,69.99-37.43-4.5-30.59Z"/>
        <path class="cls-13" d="m302.65,68.47c3.29-1.76,6.36-.57,6.86,2.67.5,3.23-1.78,7.29-5.11,9.07-3.33,1.78-6.4.59-6.86-2.67-.47-3.25,1.82-7.31,5.11-9.07Z"/>
        <polygon class="cls-14" points="358.57 31.06 370.51 111.62 373.81 113.39 361.87 29.29 358.57 31.06"/>
        <polygon class="cls-21" points="370.51 111.62 300.52 149.05 300.99 152.37 373.81 113.39 370.51 111.62"/>
      </g>
      <g>
        <polygon class="cls-14" points="314.12 167.6 317.83 169.59 304.65 77.48 300.93 75.49 314.12 167.6"/>
        <polygon class="cls-7" points="317.83 169.59 397.29 127.08 384.12 34.97 304.65 77.48 317.83 169.59"/>
        <polygon class="cls-21" points="300.93 75.49 304.65 77.48 384.12 34.97 380.35 32.95 300.93 75.49"/>
        <polygon class="cls-13" points="308.81 78.87 381.63 39.9 393.58 124.06 320.76 162.98 308.81 78.87"/>
        <polygon class="cls-5" points="308.81 78.87 381.63 39.9 393.58 124.06 320.76 162.98 308.81 78.87"/>
        <path class="cls-13" d="m385.78,91.65l-18.68-16.41c-1.95-1.71-4.26-1.19-5.12,1.17l-13.39,36.58c-.33.91-1.8.64-1.72-.32l.58-7.71-11.92-7.77c-2.2-1.43-4.98-.78-6.19,1.45l-14.02,26,4.98,35.03,69.99-37.43-4.5-30.59Z"/>
        <path class="cls-13" d="m322.41,79.08c3.29-1.76,6.36-.57,6.86,2.67.5,3.23-1.78,7.29-5.11,9.07-3.33,1.78-6.4.59-6.86-2.67-.47-3.25,1.82-7.31,5.11-9.07Z"/>
        <polygon class="cls-14" points="378.33 41.68 390.28 122.23 393.57 124.01 381.63 39.9 378.33 41.68"/>
        <polygon class="cls-21" points="390.28 122.23 320.29 159.67 320.76 162.98 393.57 124.01 390.28 122.23"/>
      </g>
      <g>
        <polygon class="cls-14" points="333.88 178.22 337.59 180.21 324.42 88.1 320.7 86.11 333.88 178.22"/>
        <polygon class="cls-7" points="337.59 180.21 417.06 137.69 403.88 45.58 324.42 88.1 337.59 180.21"/>
        <polygon class="cls-21" points="320.7 86.11 324.42 88.1 403.88 45.58 400.11 43.56 320.7 86.11"/>
        <polygon class="cls-13" points="328.57 89.48 401.4 50.52 413.35 134.68 340.52 173.6 328.57 89.48"/>
        <polygon class="cls-5" points="328.57 89.48 401.4 50.52 413.35 134.68 340.52 173.6 328.57 89.48"/>
        <path class="cls-13" d="m405.54,102.26l-18.68-16.41c-1.95-1.71-4.26-1.19-5.12,1.17l-13.39,36.58c-.33.91-1.8.64-1.72-.32l.58-7.71-11.92-7.77c-2.2-1.43-4.98-.78-6.19,1.45l-14.02,26,4.98,35.03,69.99-37.43-4.5-30.59Z"/>
        <path class="cls-13" d="m342.18,89.7c3.29-1.76,6.36-.57,6.86,2.67.5,3.23-1.78,7.29-5.11,9.07-3.33,1.78-6.4.59-6.86-2.67-.47-3.25,1.82-7.31,5.11-9.07Z"/>
        <polygon class="cls-14" points="398.1 52.29 410.04 132.85 413.34 134.62 401.4 50.52 398.1 52.29"/>
        <polygon class="cls-21" points="410.04 132.85 340.05 170.28 340.52 173.6 413.34 134.62 410.04 132.85"/>
      </g>
      <g>
        <polygon class="cls-14" points="353.65 188.83 357.36 190.83 344.19 98.71 340.47 96.72 353.65 188.83"/>
        <polygon class="cls-7" points="357.36 190.83 436.82 148.31 423.65 56.2 344.19 98.71 357.36 190.83"/>
        <polygon class="cls-21" points="340.47 96.72 344.19 98.71 423.65 56.2 419.88 54.18 340.47 96.72"/>
        <polygon class="cls-13" points="348.34 100.1 421.16 61.13 433.11 145.3 360.29 184.21 348.34 100.1"/>
        <polygon class="cls-5" points="348.34 100.1 421.16 61.13 433.11 145.3 360.29 184.21 348.34 100.1"/>
        <path class="cls-13" d="m425.31,112.88l-18.68-16.41c-1.95-1.71-4.26-1.19-5.12,1.17l-13.39,36.58c-.33.91-1.8.64-1.72-.32l.58-7.71-11.92-7.77c-2.2-1.43-4.98-.78-6.19,1.45l-14.02,26,4.98,35.03,69.99-37.43-4.5-30.59Z"/>
        <path class="cls-13" d="m361.95,100.31c3.29-1.76,6.36-.57,6.86,2.67.5,3.23-1.78,7.29-5.11,9.07-3.33,1.78-6.4.59-6.86-2.67-.47-3.25,1.82-7.31,5.11-9.07Z"/>
        <polygon class="cls-14" points="417.86 62.91 429.81 143.46 433.11 145.24 421.16 61.13 417.86 62.91"/>
        <polygon class="cls-21" points="429.81 143.46 359.82 180.9 360.29 184.21 433.11 145.24 429.81 143.46"/>
      </g>
    </g>
  </g>
  <g id="Window">
    <g id="Window-2" data-name="Window">
      <g>
        <path class="cls-10" d="m112.35,6.68v224.28c0,2.98,2.26,6.59,5.03,8.07l138.97,74.34c.58.31,1.15.46,1.67.44.21,0,.43-.03.64-.08.15-.03.3-.08.43-.14.1-.05.18-.09.26-.14.1-.06.2-.12.3-.18.1-.08.2-.14.28-.23.4-.34.69-.75.92-1.22.33-.69.53-1.5.53-2.35V86.33c0-2.97-2.26-6.59-5.03-8.07L117.38,3.99c-1.3-.69-2.47-.8-3.38-.4-.15.06-.3.14-.43.23l-.03.03c-.13.09-.23.18-.33.31-.07.05-.1.11-.15.17-.07.08-.13.15-.17.24-.13.18-.23.38-.3.6-.05.12-.1.26-.12.41-.02.03-.03.06-.02.09-.05.14-.07.28-.08.43-.02.18-.03.38-.03.58Z"/>
        <g>
          <path class="cls-13" d="m114,3.6c.91-.4,2.08-.29,3.38.4l138.97,74.27c2.77,1.48,5.03,5.11,5.03,8.07v15.23l6.41-3.49v-15.12c0-2.97-2.24-6.57-5.01-8.06L123.79.63c-1.43-.78-2.72-.79-3.64-.28-.91.5-5.08,2.72-6.15,3.24Z"/>
          <path class="cls-13" d="m112.36,6.65c.02-2.94,2.26-4.13,5.02-2.65l138.97,74.26c2.77,1.49,5.02,5.1,5.02,8.07v15.23S112.36,21.94,112.36,21.94V6.65Z"/>
          <g class="cls-18">
            <path class="cls-3" d="m117.38,4l138.97,74.26c1.37.75,2.64,2.01,3.54,3.46l6.38-3.43c-.9-1.44-2.14-2.68-3.49-3.4L123.8.63c-1.44-.78-2.72-.79-3.65-.28-.9.51-5.07,2.71-6.13,3.24.88-.4,2.07-.28,3.37.41Z"/>
          </g>
          <path class="cls-17" d="m267.8,98.09v-15.14c0-1.51-.6-3.18-1.53-4.66l-6.4,3.41c.93,1.46,1.5,3.12,1.5,4.63v15.23l6.43-3.47Z"/>
        </g>
        <g>
          <path class="cls-10" d="m142.62,23.99c1.57.84,2.84,3.33,2.84,5.57s-1.27,3.37-2.84,2.53c-1.57-.84-2.84-3.33-2.84-5.57s1.27-3.37,2.84-2.53Z"/>
          <path class="cls-10" d="m132.4,18.51c1.57.84,2.84,3.33,2.84,5.57s-1.27,3.37-2.84,2.53c-1.57-.84-2.84-3.33-2.84-5.57s1.27-3.37,2.84-2.53Z"/>
          <path class="cls-10" d="m122.18,13.04c1.57.84,2.84,3.33,2.84,5.57s-1.27,3.37-2.84,2.53c-1.57-.84-2.84-3.33-2.84-5.57s1.27-3.37,2.84-2.53Z"/>
        </g>
        <path class="cls-8" d="m259.53,313.4c.18-.11.4-.21.63-.34.46-.26.99-.53,1.55-.81l.02-.02c.28-.15.56-.31.84-.44.02-.02.05-.03.07-.03.46-.24.91-.49,1.32-.7.43-.23.81-.43,1.1-.58.3-.17.53-.28.63-.32.31-.15.61-.37.86-.64.26-.26.49-.58.68-.95.36-.7.58-1.56.58-2.46V98.07l-6.41,3.49v207.93c-.05.92-.23,1.7-.53,2.35-.23.47-.53.89-.92,1.22-.07.09-.16.17-.28.23-.03.05-.07.08-.12.11Z"/>
      </g>
      <g>
        <g>
          <path class="cls-13" d="m249.04,114.21c0-.28-.09-.57-.26-.87l-3.61-6.93c-.06-.1-.11-.17-.16-.2-.05-.04-.08-.06-.09-.06-.11-.06-.2-.05-.28.02-.08.07-.12.18-.12.34v2.33c0,.3.02.54.07.72.05.18.13.39.26.63l1.9,3.66-1.9,1.62c-.12.11-.21.23-.26.36-.05.13-.07.34-.07.64v2.33c0,.16.04.31.12.47.08.16.18.26.28.32.01,0,.04.02.09.04.05.02.1,0,.16-.03l3.61-3.06c.17-.12.26-.31.26-.59v-1.73Z"/>
          <path class="cls-13" d="m235.82,96.84c-.06-.22-.15-.45-.27-.68-.12-.23-.3-.41-.53-.53l-1.36-.73c-.11-.06-.2-.05-.28.02-.08.07-.12.18-.12.34,0,.07.01.16.04.26l6.19,24.48c.05.2.14.42.26.66.12.24.3.42.55.56l1.3.7c.11.06.2.05.28-.02.08-.07.12-.19.12-.34,0-.07-.01-.15-.04-.25l-6.14-24.45Z"/>
          <path class="cls-13" d="m226.24,103.74c0,.28.09.57.26.87l3.61,6.93c.06.1.12.17.17.21.05.03.08.06.09.06.11.06.2.05.29-.02.08-.07.12-.19.12-.34v-2.33c0-.3-.02-.54-.07-.72-.05-.18-.14-.39-.26-.63l-1.91-3.66,1.91-1.62c.12-.11.21-.23.26-.36.05-.13.07-.34.07-.64v-2.33c0-.16-.04-.31-.12-.47-.08-.16-.18-.26-.29-.32-.01,0-.04-.02-.09-.04-.05-.02-.1,0-.17.03l-3.61,3.06c-.17.12-.26.32-.26.6v1.73Z"/>
          <path class="cls-13" d="m216.2,102.13c-.13-.07-.25-.06-.35.02-.1.09-.15.23-.15.42v2.56c0,.19.05.38.15.58.1.19.22.32.35.4l1.7.91c.14.07.25.06.35-.02.1-.09.15-.23.15-.42v-2.56c0-.19-.05-.38-.15-.58-.1-.19-.21-.32-.35-.4l-1.7-.91Z"/>
          <path class="cls-13" d="m210.5,99.08c-.13-.07-.25-.06-.35.02-.1.09-.15.23-.15.42v2.56c0,.19.05.38.15.58.1.19.21.32.35.4l1.71.91c.14.07.25.06.35-.02.1-.09.15-.23.15-.42v-2.56c0-.19-.05-.38-.15-.58-.1-.19-.21-.32-.35-.4l-1.71-.91Z"/>
          <path class="cls-13" d="m204.8,96.03c-.13-.07-.25-.06-.35.02-.1.09-.15.23-.15.42v2.56c0,.19.05.38.15.58.1.19.22.32.35.4l1.7.91c.14.07.25.06.35-.02.1-.09.15-.23.15-.42v-2.56c0-.19-.05-.38-.15-.58-.1-.19-.21-.32-.35-.4l-1.7-.91Z"/>
        </g>
        <path class="cls-13" d="m247.52,132.91l-83.5-44.7c-.99-.53-1.78-.15-1.78.84s.8,2.22,1.78,2.75l83.5,44.7c.99.53,1.78.15,1.79-.84,0-.99-.8-2.22-1.78-2.75Z"/>
        <path class="cls-3" d="m220.72,161.59l-83.5-44.7c-.99-.53-1.78-.15-1.78.84s.8,2.22,1.78,2.75l83.5,44.7c.99.53,1.79.15,1.79-.84,0-.99-.8-2.22-1.78-2.75Z"/>
        <path class="cls-14" d="m220.72,190.27l-39.97-21.38c-.99-.53-1.78-.15-1.78.84s.8,2.22,1.78,2.75l39.97,21.38c.99.53,1.79.15,1.79-.84,0-.99-.8-2.22-1.78-2.75Z"/>
        <path class="cls-13" d="m157.1,84.5l-33.27-17.87c-.99-.53-1.78-.15-1.78.84s.8,2.22,1.78,2.75l33.27,17.87c.99.53,1.78.15,1.79-.84,0-.99-.8-2.22-1.78-2.75Z"/>
        <path class="cls-13" d="m247.52,290.64l-83.5-44.7c-.99-.53-1.78-.15-1.78.84s.8,2.22,1.78,2.75l83.5,44.7c.99.53,1.78.15,1.79-.84,0-.99-.8-2.22-1.78-2.75Z"/>
        <path class="cls-13" d="m157.1,242.24l-33.27-17.87c-.99-.53-1.78-.15-1.78.84s.8,2.22,1.78,2.75l33.27,17.87c.99.53,1.78.15,1.79-.84,0-.99-.8-2.22-1.78-2.75Z"/>
        <path class="cls-13" d="m157.1,199.29l-33.27-17.87c-.99-.53-1.78-.15-1.78.84s.8,2.22,1.78,2.75l33.27,17.87c.99.53,1.78.15,1.79-.84,0-.99-.8-2.22-1.78-2.75Z"/>
        <path class="cls-13" d="m157.1,213.63l-33.27-17.87c-.99-.53-1.78-.15-1.78.84s.8,2.22,1.78,2.75l33.27,17.87c.99.53,1.78.15,1.79-.84,0-.99-.8-2.22-1.78-2.75Z"/>
        <path class="cls-13" d="m185.46,214.44l-18.69-10c-.99-.53-1.78-.15-1.78.84s.8,2.22,1.78,2.75l18.69,10c.99.53,1.79.15,1.79-.84,0-.99-.8-2.22-1.78-2.75Z"/>
        <g>
          <path class="cls-13" d="m247.52,147.28l-48.7-26.09c-.99-.53-1.78-.15-1.78.84s.8,2.22,1.78,2.75l48.7,26.09c.99.53,1.78.15,1.79-.84,0-.99-.8-2.22-1.78-2.75Z"/>
          <path class="cls-6" d="m247.52,147.28l-48.7-26.09c-.99-.53-1.78-.15-1.78.84s.8,2.22,1.78,2.75l48.7,26.09c.99.53,1.78.15,1.79-.84,0-.99-.8-2.22-1.78-2.75Z"/>
        </g>
        <g>
          <path class="cls-13" d="m247.52,161.59l-16.52-8.86c-.99-.53-1.78-.15-1.78.84s.8,2.22,1.78,2.75l16.52,8.86c.99.53,1.78.15,1.79-.84,0-.99-.8-2.22-1.78-2.75Z"/>
          <path class="cls-6" d="m247.52,161.59l-16.52-8.86c-.99-.53-1.78-.15-1.78.84s.8,2.22,1.78,2.75l16.52,8.86c.99.53,1.78.15,1.79-.84,0-.99-.8-2.22-1.78-2.75Z"/>
        </g>
        <g>
          <path class="cls-13" d="m247.52,175.93l-16.52-8.86c-.99-.53-1.78-.15-1.78.84s.8,2.22,1.78,2.75l16.52,8.86c.99.53,1.78.15,1.79-.84,0-.99-.8-2.22-1.78-2.75Z"/>
          <path class="cls-6" d="m247.52,175.93l-16.52-8.86c-.99-.53-1.78-.15-1.78.84s.8,2.22,1.78,2.75l16.52,8.86c.99.53,1.78.15,1.79-.84,0-.99-.8-2.22-1.78-2.75Z"/>
        </g>
        <path class="cls-13" d="m247.52,190.27l-16.52-8.86c-.99-.53-1.78-.15-1.78.84s.8,2.22,1.78,2.75l16.52,8.86c.99.53,1.78.15,1.79-.84,0-.99-.8-2.22-1.78-2.75Z"/>
        <path class="cls-6" d="m247.52,190.27l-16.52-8.86c-.99-.53-1.78-.15-1.78.84s.8,2.22,1.78,2.75l16.52,8.86c.99.53,1.78.15,1.79-.84,0-.99-.8-2.22-1.78-2.75Z"/>
        <path class="cls-13" d="m220.72,175.93l-48.7-26.09c-.99-.53-1.79-.15-1.79.84s.8,2.22,1.79,2.75l48.7,26.09c.99.53,1.78.15,1.79-.84,0-.99-.8-2.22-1.78-2.75Z"/>
        <path class="cls-13" d="m165.1,146.13l-21.18-11.3c-.99-.53-1.78-.15-1.78.84s.8,2.22,1.78,2.75l21.18,11.3c.99.53,1.78.15,1.79-.84,0-.99-.8-2.22-1.78-2.75Z"/>
        <g>
          <path class="cls-13" d="m247.52,204.61l-16.52-8.86c-.99-.53-1.78-.15-1.78.84s.8,2.22,1.78,2.75l16.52,8.86c.99.53,1.78.15,1.79-.84,0-.99-.8-2.22-1.78-2.75Z"/>
          <path class="cls-6" d="m247.52,204.61l-16.52-8.86c-.99-.53-1.78-.15-1.78.84s.8,2.22,1.78,2.75l16.52,8.86c.99.53,1.78.15,1.79-.84,0-.99-.8-2.22-1.78-2.75Z"/>
        </g>
        <g>
          <path class="cls-13" d="m191.89,117.48l-21.18-11.3c-.99-.53-1.78-.15-1.78.84s.8,2.22,1.78,2.75l21.18,11.3c.99.53,1.79.15,1.79-.84,0-.99-.8-2.22-1.78-2.75Z"/>
          <path class="cls-6" d="m191.89,117.48l-21.18-11.3c-.99-.53-1.78-.15-1.78.84s.8,2.22,1.78,2.75l21.18,11.3c.99.53,1.79.15,1.79-.84,0-.99-.8-2.22-1.78-2.75Z"/>
        </g>
        <path class="cls-14" d="m200.63,193.83l-48.7-26.09c-.99-.53-1.78-.15-1.78.84s.8,2.22,1.78,2.75l48.7,26.09c.99.53,1.79.15,1.79-.84,0-.99-.8-2.22-1.78-2.75Z"/>
        <path class="cls-3" d="m172.53,193.19l-48.7-26.09c-.99-.53-1.78-.15-1.78.84s.8,2.22,1.78,2.75l48.7,26.09c.99.53,1.78.15,1.79-.84,0-.99-.8-2.22-1.78-2.75Z"/>
        <path class="cls-14" d="m145.01,164.04l-21.18-11.3c-.99-.53-1.78-.15-1.78.84s.8,2.22,1.78,2.75l21.18,11.3c.99.53,1.79.15,1.79-.84,0-.99-.8-2.22-1.78-2.75Z"/>
        <path class="cls-14" d="m145.01,220.84l-21.18-11.3c-.99-.53-1.78-.15-1.78.84s.8,2.22,1.78,2.75l21.18,11.3c.99.53,1.79.15,1.79-.84,0-.99-.8-2.22-1.78-2.75Z"/>
        <g>
          <path class="cls-13" d="m220.72,147.25l-48.7-26.09c-.99-.53-1.79-.15-1.79.84s.8,2.22,1.79,2.75l48.7,26.09c.99.53,1.78.15,1.79-.84,0-.99-.8-2.22-1.78-2.75Z"/>
          <path class="cls-6" d="m220.72,147.25l-48.7-26.09c-.99-.53-1.79-.15-1.79.84s.8,2.22,1.79,2.75l48.7,26.09c.99.53,1.78.15,1.79-.84,0-.99-.8-2.22-1.78-2.75Z"/>
        </g>
        <g>
          <path class="cls-13" d="m165.1,117.46l-21.18-11.3c-.99-.53-1.78-.15-1.78.84s.8,2.22,1.78,2.75l21.18,11.3c.99.53,1.78.15,1.79-.84,0-.99-.8-2.22-1.78-2.75Z"/>
          <path class="cls-6" d="m165.1,117.46l-21.18-11.3c-.99-.53-1.78-.15-1.78.84s.8,2.22,1.78,2.75l21.18,11.3c.99.53,1.78.15,1.79-.84,0-.99-.8-2.22-1.78-2.75Z"/>
        </g>
        <path class="cls-6" d="m220.72,175.93l-48.7-26.09c-.99-.53-1.79-.15-1.79.84s.8,2.22,1.79,2.75l48.7,26.09c.99.53,1.78.15,1.79-.84,0-.99-.8-2.22-1.78-2.75Z"/>
        <path class="cls-6" d="m165.1,146.13l-21.18-11.3c-.99-.53-1.78-.15-1.78.84s.8,2.22,1.78,2.75l21.18,11.3c.99.53,1.78.15,1.79-.84,0-.99-.8-2.22-1.78-2.75Z"/>
      </g>
    </g>
  </g>
  <g id="Icons">
    <g id="Java">
      <g>
        <path class="cls-13" d="m54.44,25.36l11.62,6.17,11.68-.95c.15,0,.29,0,.4.05-.93-.51-11.12-5.91-11.54-6.12-.14-.07-.3-.11-.49-.09l-11.67.94Z"/>
        <path class="cls-4" d="m54.44,25.36l11.62,6.17,11.68-.95c.15,0,.29,0,.4.05-.93-.51-11.12-5.91-11.54-6.12-.14-.07-.3-.11-.49-.09l-11.67.94Z"/>
      </g>
      <g>
        <g>
          <polygon class="cls-13" points="18.34 27.52 60.35 5.04 68.69 9.53 65.61 67.31 47.69 87 29.76 86.5 21.42 82 18.34 27.52"/>
          <polygon class="cls-4" points="18.34 27.52 26.69 32.02 68.69 9.53 60.35 5.04 18.34 27.52"/>
          <polygon class="cls-17" points="18.34 27.52 26.69 32.02 29.76 86.5 21.42 82 18.34 27.52"/>
          <path class="cls-13" d="m68.69,9.53l-1.17,21.88,10.21-.83c.78-.06,1.23.8.7,1.33l-11.56,11.61-1.27,23.78-17.93,19.69-17.93-.49-3.08-54.48,42.01-22.49Z"/>
          <polygon class="cls-4" points="47.69 26.41 31 35.34 33.45 80.16 47.69 81.14 47.69 26.41"/>
        </g>
        <polygon class="cls-3" points="34.97 37.62 36.72 74.33 47.69 74.91 58.65 62.59 59.21 52.22 55.25 54.34 54.92 60.53 47.69 68.92 40.46 68.27 39.23 40.97 60.1 29.8 60.41 24 34.97 37.62"/>
      </g>
    </g>
    <g id="CSS">
      <path class="cls-13" d="m54.44,117.62l11.62,6.17,11.68-.95c.15,0,.29,0,.4.05-.93-.51-11.12-5.91-11.54-6.12-.14-.07-.3-.11-.49-.09l-11.67.94Z"/>
      <g>
        <polygon class="cls-13" points="18.34 119.78 60.35 97.29 68.69 101.79 65.61 159.57 47.69 179.25 29.76 178.76 21.42 174.26 18.34 119.78"/>
        <polygon class="cls-15" points="18.34 119.78 26.69 124.27 29.76 178.76 21.42 174.26 18.34 119.78"/>
      </g>
      <g>
        <g>
          <path class="cls-13" d="m68.69,101.79l-1.17,21.88,10.21-.83c.78-.06,1.23.79.7,1.33l-11.56,11.61-1.27,23.78-17.93,19.69-17.93-.49-3.08-54.48,42.01-22.49Z"/>
          <path class="cls-22" d="m68.69,101.79l-1.17,21.88,10.21-.83c.78-.06,1.23.79.7,1.33l-11.56,11.61-1.27,23.78-17.93,19.69-17.93-.49-3.08-54.48,42.01-22.49Z"/>
          <polygon class="cls-2" points="47.69 118.66 31 127.6 33.45 172.41 47.69 173.4 47.69 118.66"/>
        </g>
        <polygon class="cls-3" points="60.41 116.26 60.15 122.03 39.23 133.22 39.74 144.6 59.6 133.97 59.34 139.75 39.99 150.1 40.46 160.52 47.69 161.18 54.92 152.78 55.25 146.6 59.21 144.48 58.65 154.85 47.69 167.17 36.72 166.59 34.97 129.88 60.41 116.26"/>
      </g>
    </g>
    <g id="HTML">
      <g>
        <polygon class="cls-13" points="18.34 212.02 60.35 189.54 68.69 194.03 65.61 251.81 47.69 271.5 29.76 271 21.42 266.5 18.34 212.02"/>
        <polygon class="cls-22" points="18.34 212.02 26.69 216.52 68.69 194.03 60.35 189.54 18.34 212.02"/>
        <polygon class="cls-19" points="18.34 212.02 26.69 216.52 29.76 271 21.42 266.5 18.34 212.02"/>
      </g>
      <g>
        <g>
          <g>
            <path class="cls-13" d="m54.44,209.86l11.62,6.17,11.68-.95c.15,0,.29,0,.4.05-.93-.51-11.12-5.91-11.54-6.12-.14-.07-.3-.11-.49-.09l-11.67.94Z"/>
            <path class="cls-22" d="m54.44,209.86l11.62,6.17,11.68-.95c.15,0,.29,0,.4.05-.93-.51-11.12-5.91-11.54-6.12-.14-.07-.3-.11-.49-.09l-11.67.94Z"/>
          </g>
          <path class="cls-13" d="m68.69,194.03l-1.17,21.88,10.21-.83c.78-.06,1.23.8.7,1.33l-11.56,11.61-1.27,23.78-17.93,19.69-17.93-.49-3.08-54.48,42.01-22.49Z"/>
          <path class="cls-18" d="m68.69,194.03l-1.17,21.88,10.21-.83c.78-.06,1.23.8.7,1.33l-11.56,11.61-1.27,23.78-17.93,19.69-17.93-.49-3.08-54.48,42.01-22.49Z"/>
          <polygon class="cls-12" points="47.69 210.91 31 219.84 33.45 264.66 47.69 265.64 47.69 210.91"/>
        </g>
        <polygon class="cls-3" points="34.97 222.12 60.41 208.5 59.34 231.99 39.99 242.34 40.46 252.77 47.69 253.43 54.92 245.03 55.25 238.84 59.21 236.72 58.65 247.1 47.69 259.41 36.72 258.83 35.78 238.96 55.63 228.34 56.14 216.42 35.28 227.59 34.97 222.12"/>
      </g>
    </g>
  </g>
  <g id="Character">
    <g id="Character-2" data-name="Character">
      <g>
        <path class="cls-8" d="m237.34,328.54c3.02,8.36,5.61,19.15,9.7,35.42,3.83,15.24,3.85,26.01-1.46,29.7-5.17,3.59-20.56,1.44-30.21-17.6-3.02-5.95-14.38-24.35-14.38-24.35,0,0-8.41-2.81-11.31-4.92,0,0-28.05.76-41.68-1.83-13.62-2.59-28.12-18.02-22.54-19.54,10.04-2.74,36.76-3.77,59.39-5.12l52.49,8.24Z"/>
        <path class="cls-23" d="m161.37,341.71c6.14,1.32,15.23-.44,20.35-1.82-.54-2.55.17-5.04.17-5.04.21,2.5,1.43,4.92,2.27,6.32.84.44,1.56.81,2.08,1.05,3.41,1.61,12.77,6.05,14.51,4.65,3.98-5.08,10.49-6.17,10.49-6.17-2.93,1.83-11.44,7.48-8.42,14.03l-1.85-3.01s-8.41-2.81-11.31-4.92c0,0-15.69.42-29.3-.44l-16.17-10.37s7.76-.42,17.16,5.72Z"/>
        <g>
          <path class="cls-11" d="m177.09,359.45c2.13,1.78,4.78,3.47,7.29,4,.94.2,1.88.18,2.74,0,3.15-.61,8.2-.6,9.96,5.23,2,6.61,9.97,9.75,12.1,14.28,1.07,2.27,1.62,8.82.57,12.84-.86,3.31-7.75.85-10.3-3.18-2.55-4.03-8.03-9.33-11.65-12.4-5.88-3.06-12.4-7.56-15.18-9.37l4.47-11.4Z"/>
          <path class="cls-23" d="m135.63,323.18c-18.08,1.12-18.7,10.04-14.18,16.77,4.87,7.24,22.7,17.02,32.32,22.16,8.85,4.72,23.96,13.1,23.96,13.1,0,0,7.66-5.54,6.66-11.76-10.01-6.47-23.49-24.89-40.18-27.45l-8.58-12.81Z"/>
          <g>
            <path class="cls-23" d="m207.03,397.83c.8.21,2.17-.11,2.97-.64.81-.53,2.59-5.2,1.1-10.87-1.49-5.67-4.72-9.2-6.69-11.14-1.97-1.94-2.69-4.16-3.4-6.98-.71-2.81-2.93-6.29-4.48-6.69-1.55-.39-3.88.72-3.88.72l14.37,35.59Z"/>
            <path class="cls-13" d="m183.19,377.83c.38,1.79,1.97,2.25,3.69,2.89,2.34.86,4.56,3.1,6.68,5.6,1.44,1.7,2.62,3.4,3.92,5.18,1.33,1.82,2.4,4.34,3.81,5.71,2.06,1.99,6.22,1.62,7.37-1.21.99-2.44,1.41-8.5-1.59-14.3-1.64-3.16-6.16-6.24-7.35-10.54-.79-2.88-1.88-6.32-4.17-8.51-1.36-1.29-2.6-.98-4.3-.54-2.25.58-4.55,1.03-6.86,1.34.04,1.78.63,3.54,1.67,5.03.36.51.78,1.01.87,1.62.06.41-.03.82-.12,1.22-.13.56-.35,1.21-.94,1.37-.24.06-.5.02-.74.05-.93.12-1.37,1.1-1.61,1.94-.26.91-.48,1.85-.38,2.79.01.13.03.25.06.37Z"/>
            <path class="cls-18" d="m183.19,377.83c.38,1.79,1.97,2.25,3.69,2.89,2.34.86,4.56,3.1,6.68,5.6,1.44,1.7,2.62,3.4,3.92,5.18,1.33,1.82,2.4,4.34,3.81,5.71,2.06,1.99,6.22,1.62,7.37-1.21.99-2.44,1.41-8.5-1.59-14.3-1.64-3.16-6.16-6.24-7.35-10.54-.79-2.88-1.88-6.32-4.17-8.51-1.36-1.29-2.6-.98-4.3-.54-2.25.58-4.55,1.03-6.86,1.34.04,1.78.63,3.54,1.67,5.03.36.51.78,1.01.87,1.62.06.41-.03.82-.12,1.22-.13.56-.35,1.21-.94,1.37-.24.06-.5.02-.74.05-.93.12-1.37,1.1-1.61,1.94-.26.91-.48,1.85-.38,2.79.01.13.03.25.06.37Z"/>
            <path class="cls-9" d="m191.45,383.99s-1.22-.21-1.86-1.81c-.49-1.22.1-3.61,1.07-5.2.4-.65,1.37-.73,1.87-.15h0c.3.35.33.83.08,1.21-.68,1.05-1.85,3.33-1.16,5.95Z"/>
            <path class="cls-9" d="m194.54,387.52s-1.53-.59-1.8-2.21c0,0-.52-3.31,1.15-5.69.43-.6,1.32-.71,1.81-.15h0c.29.34.32.8.07,1.16-.71,1.06-2.23,3.2-1.23,6.88Z"/>
            <path class="cls-9" d="m197.48,391.5s-1.42-.71-1.69-2.33c0,0-.45-3.09,1.22-5.46.43-.6,1.32-.71,1.81-.15h0c.29.34.32.8.07,1.16-.71,1.06-2.41,3.1-1.41,6.78Z"/>
          </g>
        </g>
        <g>
          <path class="cls-24" d="m184.31,361.93c-3.2-.75-7.91-1.82-9.86-4.19s-5.98-4.68-11.44-1.35c-3.46,2.11-7.58,2.8-11.65,3.05-1.76.11-3.74-.09-5.46.24-2.07.4-4.26,1.57-6.04,2.59-1.13.65-2.24,1.4-3,2.41-1.37,1.81-1.41,4.39-.11,6.24.23.33.51.64.85.87.42.29.92.44,1.43.55,1.89.39,3.46-.16,5.24-.62,1.48-.38,2.98-.67,4.49-.92,3.41-.58,6.87-.98,10.33-1.12,1.48-.06,4.54-.27,6.02-.18,6.18.39,14.9,3.61,14.9,3.61l4.28-11.19Z"/>
          <path class="cls-8" d="m248.45,389.33c-1.02,5.78-8.01,8.57-23.02,5.79-15-2.78-50.71-23.63-50.71-23.63,0,0,1.4-7.99,9.6-10.14,0,0,7.47,1.25,19.65,3.71,4.63.93,10.52,2.38,16.26,4.17,8.23,10.25,16.8,6.11,19.89,9.71,5.15,6.02,8.33,10.38,8.33,10.38Z"/>
          <g>
            <path class="cls-23" d="m135.2,371.24c-.75-.33-1.55-1.41-1.78-2.3-.23-.89,1.74-5.49,6.89-8.85s10.09-4.04,12.95-4.29,4.98-1.49,7.51-3.17c2.53-1.68,6.68-2.94,8.12-2.29,1.44.65,2.41,2.91,2.41,2.91l-36.1,17.99Z"/>
            <path class="cls-13" d="m167.34,370.76c-1.56,1.12-3.09.49-4.83-.09-2.37-.78-5.64-.45-9,.13-2.29.4-4.39.95-6.63,1.5-2.29.56-4.89,1.8-6.92,1.96-2.96.24-5.83-2.59-4.68-5.41.99-2.44,4.98-7.26,11.37-9.79,3.48-1.38,9.07-.93,13.02-3.44,2.65-1.68,5.9-3.61,9.18-3.85,1.94-.14,2.65.85,3.62,2.22,1.28,1.81,2.69,3.55,4.21,5.2-1.3,1.31-2.99,2.28-4.83,2.76-.63.17-1.3.29-1.8.68-.34.27-.56.63-.78.99-.3.5-.6,1.13-.26,1.6.14.19.36.32.52.49.62.65.25,1.67-.17,2.45-.45.84-.95,1.69-1.7,2.33-.1.09-.2.17-.31.24Z"/>
            <path class="cls-18" d="m167.34,370.76c-1.56,1.12-3.09.49-4.83-.09-2.37-.78-5.64-.45-9,.13-2.29.4-4.39.95-6.63,1.5-2.29.56-4.89,1.8-6.92,1.96-2.96.24-5.83-2.59-4.68-5.41.99-2.44,4.98-7.26,11.37-9.79,3.48-1.38,9.07-.93,13.02-3.44,2.65-1.68,5.9-3.61,9.18-3.85,1.94-.14,2.65.85,3.62,2.22,1.28,1.81,2.69,3.55,4.21,5.2-1.3,1.31-2.99,2.28-4.83,2.76-.63.17-1.3.29-1.8.68-.34.27-.56.63-.78.99-.3.5-.6,1.13-.26,1.6.14.19.36.32.52.49.62.65.25,1.67-.17,2.45-.45.84-.95,1.69-1.7,2.33-.1.09-.2.17-.31.24Z"/>
            <path class="cls-9" d="m156.76,370.35s1.07.59,2.69-.22c1.24-.62,2.5-2.78,2.89-4.56.16-.73-.51-1.39-1.3-1.26h0c-.47.08-.83.42-.92.86-.23,1.2-.98,3.64-3.36,5.18Z"/>
            <path class="cls-9" d="m151.92,371.12s1.57.49,2.93-.56c0,0,2.74-2.18,3.17-4.98.11-.72-.49-1.34-1.26-1.22h0c-.46.08-.8.41-.88.83-.22,1.23-.6,3.77-3.97,5.93Z"/>
            <path class="cls-9" d="m146.88,372.31s1.57.33,2.93-.72c0,0,2.54-2.05,2.97-4.85.11-.72-.49-1.34-1.26-1.22h0c-.46.08-.8.41-.88.83-.22,1.23-.39,3.8-3.76,5.96Z"/>
          </g>
        </g>
        <path class="cls-23" d="m209.86,366.38s10.08,1.83,17.55,6.49c0,0-7.68-8.34-19.55-9.84l1.99,3.34Z"/>
      </g>
      <g>
        <path class="cls-24" d="m172.13,295.14l12.56-32.89,3.32,1.14-1.99,36.32-2.17,5.4c-5.61-2.81-10.19-4.73-11.71-9.97Z"/>
        <path class="cls-13" d="m201.67,253.62c-7.77.07-14.88,2.69-17.82,8.34-2.94,5.65-11.95,31.32-11.95,31.32,0,0,7.39,8.08,18.29,7.42l11.48-47.08Z"/>
        <path class="cls-20" d="m201.67,253.62c-7.77.07-14.88,2.69-17.82,8.34-2.94,5.65-11.95,31.32-11.95,31.32,0,0,7.39,8.08,18.29,7.42l11.48-47.08Z"/>
      </g>
      <g>
        <path class="cls-7" d="m217.62,254.06c10.91,1.87,18.18,4.04,20.23,5.89,4.64,8.81-1.39,38.33-1.39,38.33l-1.03,14.06,1.91,16.2c-11.78,9.23-47.87,4.69-54.3-8.24,0,0,1.8-42.13,1.8-49.59s4.47-16.43,16.82-17.09l15.95.43Z"/>
        <path class="cls-21" d="m225.56,322.19c3.15-4.49,3.02-15.91,3.02-15.91,0,0-5.52-29.8-4.25-36.9l14.57,12.94c-.93,8.52-2.45,15.96-2.45,15.96l-1.03,14.06,1.91,16.2c-9.42,7.38-34.38,5.95-47.29-1.53,18.9,7.04,32.36-.33,35.51-4.82Z"/>
      </g>
      <g>
        <g>
          <path class="cls-23" d="m223.64,230.31s-1.64,11.21-2.51,13.09c-.87,1.88-2.93,2.54-2.93,2.54l-.45-7.77,5.89-7.86Z"/>
          <path class="cls-23" d="m219.18,214.73s2.69-.62,4.98,1.25c2.24,1.83,1.58,8.1-.53,14.34l-4.73.84.28-16.42Z"/>
          <path class="cls-24" d="m217.48,231.25c1,.46,2.23-1.33,3.31-2.56,1.09-1.23,4.81-3.06,7.04.56,2.27,3.69-.98,9-3.94,10.09-5.1,1.88-6.14-1.17-6.14-1.17l1.09,17.84c-4.73,9.56-23.63,6.14-17.18-.42l-.35-4.53s-5.54.72-7.88.55c-3.89-.28-5.67-2.64-7.14-6.42-2.37-6.06-3.49-11.02-2.88-23.31.66-13.47,17.4-14.77,26.87-10.12,9.47,4.65,7.2,19.49,7.2,19.49Z"/>
          <path class="cls-23" d="m217.81,207.48c-3.21-1.13-6.68-1.63-10.1-2.07-7.42-.96-14.97-1.8-21.9-4.47-.85-.33-1.77-.69-2.67-.52-1.74.34-2.35,2.37-2.29,4.01.06,1.53.4,3.04,1,4.47-1.03-.98-2.95-.7-3.93.33-.97,1.03-1.13,2.54-.83,3.88.67,3,3.38,5.35,6.45,6.5,3.07,1.14,6.47,1.25,9.77,1.11,4.62-.2,9.21-.84,13.68-1.92,1.09-.26,2.2-.55,3.31-.45,1.12.1,2.27.68,2.63,1.66.62,1.65,2.05,13.09,4.6,12.96.48-.02,2.04-3.04,3.13-4.15,1.37-1.4,2.06-11.32,2.18-13.16,0-.15.09-.27.17-.4,1.49-2.27-.76-5.78-2.9-6.82-.75-.36-1.53-.68-2.31-.96Z"/>
          <path class="cls-23" d="m222.12,215.48c1.36,1.27,3.57,1.28,4.94.02s1.38-3.31.02-4.58l-4.97,4.56Z"/>
          <path class="cls-11" d="m201.31,251.06s8.52-1.36,11.4-3.05c1.93-1.13,3.44-2.96,3.84-4.09,0,0-.37,2.4-1.99,4.65-1.98,2.75-13,5.44-13,5.44l-.24-2.95Z"/>
        </g>
        <g>
          <path class="cls-23" d="m200.45,230.35c.07.91.9,1.6,1.85,1.53.95-.07,1.66-.86,1.58-1.78-.07-.91-.9-1.6-1.85-1.53-.95.07-1.66.87-1.59,1.78Z"/>
          <path class="cls-23" d="m201.79,224.2l3.83,1.63c.46-1.02-.02-2.21-1.08-2.65-1.06-.45-2.29.01-2.75,1.03Z"/>
          <path class="cls-11" d="m201.31,241.44l-3.81,1.64c.47,1.02,1.71,1.47,2.76,1.02,1.05-.45,1.52-1.64,1.05-2.66Z"/>
          <path class="cls-23" d="m185.22,226.72l3.16-2.63c-.76-.84-2.08-.94-2.95-.21-.87.73-.97,2-.21,2.84Z"/>
          <path class="cls-23" d="m186.59,230.88c.07.91.9,1.6,1.85,1.53.95-.07,1.66-.86,1.58-1.78-.07-.91-.9-1.6-1.85-1.53-.95.07-1.66.87-1.59,1.78Z"/>
          <polygon class="cls-11" points="195.36 229.24 195.57 238.86 190.04 237.53 195.36 229.24"/>
        </g>
      </g>
      <g>
        <path class="cls-24" d="m250.45,327.27c7-6.51,8.11-8.65,7.16-12.72-1.87-8.02-9.54-33.61-12.45-41.22-3.66-9.56-5.29-13.38-11.37-14.61-4.91,3.6-9.71,17.08-3.11,29.22l7.96,26.5"/>
        <g>
          <path class="cls-13" d="m228.57,256.33c9.39,1.01,13.37,4.52,16.75,13.93,3.38,9.41,9.34,31.08,9.34,31.08,0,0-7.88,7.92-18.93,7.09l-9.21-28.3s-6.48-20.56,2.05-23.8Z"/>
          <path class="cls-20" d="m228.57,256.33c9.39,1.01,13.37,4.52,16.75,13.93,3.38,9.41,9.34,31.08,9.34,31.08,0,0-7.88,7.92-18.93,7.09l-9.21-28.3s-6.48-20.56,2.05-23.8Z"/>
        </g>
      </g>
      <g>
        <g>
          <path class="cls-21" d="m230.74,353.84v1.01c0,1.02-.59,1.97-1.54,2.48l-29.4,15.68c-.48.26-1.01.38-1.54.38s-1.06-.12-1.54-.38l-53.93-28.87c-.96-.51-1.54-1.46-1.54-2.48v-.7l57.01,30.52,32.48-17.65Z"/>
          <path class="cls-7" d="m141.25,340.97l31.98-17.11c.57-.3,1.27-.3,1.84,0l55.47,29.7c.27.15.27.51,0,.66l-32.28,17.28-57.01-30.52Z"/>
          <path class="cls-24" d="m155.47,323.63c4.39-7.22,16.66-28.48,16.66-28.48l11.71,9.97c-4.78,8.38-17.75,25.25-17.75,25.25-5.97,3.63-13.15-2.57-10.62-6.73Z"/>
          <polygon class="cls-14" points="198.56 368.97 215.8 359.75 165.38 332.76 148.04 341.93 198.56 368.97"/>
          <polygon class="cls-14" points="207.03 343.32 206.72 343.49 198.26 348.01 183.23 339.97 182.92 339.8 191.69 335.11 207.03 343.32"/>
          <polygon class="cls-16" points="206.72 343.49 198.26 348.01 183.23 339.97 191.69 335.44 206.72 343.49"/>
          <path class="cls-21" d="m198.26,371.49v1.9c-.53,0-1.06-.12-1.54-.38l-53.93-28.87c-.96-.51-1.54-1.46-1.54-2.48v-.7l57.01,30.52Z"/>
          <path class="cls-14" d="m198.26,371.49v1.9c-.53,0-1.06-.12-1.54-.38l-53.93-28.87c-.96-.51-1.54-1.46-1.54-2.48v-.7l57.01,30.52Z"/>
          <path class="cls-13" d="m197.39,371.91c-1.02.37-2.18.3-3.15-.23l-53.69-28.74c-.94-.51-1.59-1.37-1.78-2.37l-5.88-32.5c-.03-.19-.05-.37-.05-.56,0-.91.39-1.77,1.08-2.41l55.8,29.87c.7.38,1.18,1.02,1.31,1.75l6.35,35.17Z"/>
          <g class="cls-1">
            <path class="cls-3" d="m197.39,371.91c-1.02.37-2.18.3-3.15-.23l-53.69-28.74c-.94-.51-1.59-1.37-1.78-2.37l-5.88-32.5c-.03-.19-.05-.37-.05-.56,0-.91.39-1.77,1.08-2.41l55.8,29.87c.7.38,1.18,1.02,1.31,1.75l6.35,35.17Z"/>
          </g>
          <path class="cls-7" d="m198.26,371.49l-.37.2c-.16.08-.33.16-.5.23l-6.35-35.17c-.14-.74-.62-1.38-1.31-1.75l-55.8-29.87c.22-.2.47-.38.74-.53l55.91,29.93c.7.38,1.18,1.02,1.31,1.75l6.36,35.22Z"/>
          <path class="cls-13" d="m167.15,341.91c-.39-2.18-2.82-5.07-5.41-6.45-2.6-1.39-4.38-.75-3.99,1.42.39,2.18,2.82,5.07,5.41,6.45,2.6,1.39,4.38.75,3.99-1.42Z"/>
        </g>
        <path class="cls-24" d="m238.64,314.44s-4.03,6.21-8.69,12.03c-4.65,5.81-9.66,11.89-13.48,12.93-3.55.96-7.71,2.13-8.91,3.15-1.2,1.03-6.97,6.99-8.09,8.7-1.12,1.71-3.79,5.19,0,6.3,3.46,1.01,6.28-.36,9.09-2.15,1.81-1.15,3.76-2.88,3.76-2.88,0,0,4.15.6,8.12-1.49,2.14-1.13,5.72-3.08,5.72-3.08,2.95-1.88,17.63-14.47,24.3-20.68"/>
      </g>
    </g>
  </g>
</svg>