<svg width="1762" height="1212" viewBox="0 0 1762 1212" fill="none" xmlns="http://www.w3.org/2000/svg">
<path d="M488.5 1153C362.5 1273 158.467 1167.63 0.5 1189.5L268 104.5C268 104.5 790.705 154.222 1224.5 104.5C1285.36 97.5236 1499.87 14.7867 1560.5 5.9999C1621.13 -2.7869 1760.66 -21.0002 1761.5 145.5C1762.34 312 1584 361.5 1468.5 361.5C1353 361.5 1035.97 190 950.5 449C919.6 542.641 1036 718.5 843.5 718.5C651 718.5 625.5 718.5 580.5 770C535.5 821.5 614.5 1033 488.5 1153Z" fill="#D9D9D9"/>
</svg>
